<svg width="106" height="118" viewBox="0 0 106 118" fill="none" xmlns="http://www.w3.org/2000/svg">
<path d="M48.5621 2.66487C51.315 1.10454 54.685 1.10453 57.4379 2.66486L78.6001 14.6596L99.5687 26.9891C102.296 28.593 103.981 31.5115 104.007 34.6758L104.2 59L104.007 83.3242C103.981 86.4885 102.296 89.407 99.5687 91.0109L78.6002 103.34L57.4379 115.335C54.685 116.895 51.315 116.895 48.5621 115.335L27.4 103.34L6.43129 91.0109C3.70356 89.407 2.01854 86.4885 1.99339 83.3242L1.80003 59L1.99339 34.6758C2.01854 31.5115 3.70357 28.593 6.43129 26.9891L27.4 14.6595L48.5621 2.66487Z" stroke="url(#paint0_linear_13901_64691)" stroke-width="2"/>
<defs>
<linearGradient id="paint0_linear_13901_64691" x1="53" y1="-1" x2="53" y2="119" gradientUnits="userSpaceOnUse">
<stop stop-color="#FFBAAA" stop-opacity="0.8"/>
<stop offset="1" stop-color="#C2EDFF"/>
</linearGradient>
</defs>
</svg>
