<svg width="56" height="64" viewBox="0 0 56 64" fill="none" xmlns="http://www.w3.org/2000/svg">
<path d="M26.5207 1.98793C27.4383 1.46782 28.5617 1.46782 29.4793 1.98793L41.42 8.75591L53.2516 15.7129C54.1608 16.2475 54.7225 17.2203 54.7309 18.2751L54.84 32L54.7309 45.7249C54.7225 46.7797 54.1608 47.7525 53.2516 48.2871L41.42 55.2441L29.4793 62.0121C28.5617 62.5322 27.4383 62.5322 26.5207 62.0121L14.58 55.2441L2.74843 48.2871C1.83919 47.7525 1.27752 46.7797 1.26913 45.7249L1.16003 32L1.26913 18.2751C1.27752 17.2203 1.83919 16.2475 2.74843 15.7129L14.58 8.75591L26.5207 1.98793Z" stroke="url(#paint0_linear_13888_64031)" stroke-width="2"/>
<defs>
<linearGradient id="paint0_linear_13888_64031" x1="28" y1="0" x2="28" y2="64" gradientUnits="userSpaceOnUse">
<stop stop-color="#FFBAAA" stop-opacity="0.8"/>
<stop offset="1" stop-color="#C2EDFF"/>
</linearGradient>
</defs>
</svg>
