<svg width="1440" height="320" viewBox="0 0 1440 320" fill="none" xmlns="http://www.w3.org/2000/svg">
<path d="M0 221.933C13.4496 222.734 35.2235 221.626 101.726 256.581C124.119 267.942 155.05 294.453 195.368 295.157C231.113 296.066 265.849 275.798 322.596 224.145C341.823 207.261 374.202 172.174 399.249 167.637C425.744 162.87 453.794 181.388 465.438 185.42C479.894 189.705 511.817 200.709 548.877 200.709C589.102 200.709 617.158 177.567 635.554 175.06C653.95 172.553 666.046 184.739 675.607 190.522C688.779 198.51 711.791 208.78 734.949 208.78C788.086 208.78 843.43 142.324 880.123 135.206C916.816 128.089 948.971 155.833 971.326 165.973C989.394 173.664 1012.56 188.525 1047.11 187.252C1078.76 187.602 1142.26 154.893 1200.57 94.4694C1258.88 34.0461 1283.21 26.8678 1325.75 24.0842C1378.76 20.3744 1414.1 37.5774 1440 49.1411" stroke="#F7CEC4" stroke-width="2"/>
<path d="M0 217.825C13.2366 218.446 34.9625 217.211 99.9828 250.757C122.731 261.691 154.09 287.364 194.793 288.773C231.713 290.591 268.276 271.873 324.286 222.25C344.011 205.972 376.151 171.783 401.113 166.726C427.464 161.447 455.155 178.336 467.012 181.51C482.262 184.24 514.605 192.868 551.914 192.868C591.171 192.868 618.782 170.961 637.073 168.908C655.364 166.855 667.555 178.961 677.177 184.815C690.738 193.11 715.042 204.681 739.111 204.681C791.628 204.681 846.604 139.997 883.501 131.995C920.397 123.993 952.739 149.218 974.934 158.201C993.234 164.636 1019.06 178.594 1051.52 178.594C1082.33 179.294 1143.86 148.336 1200.5 90.6956C1257.14 33.055 1281.29 26.3176 1322.88 23.5212C1377.43 19.3808 1410.79 29.7276 1439.92 41.0795" stroke="#F3CFC7" stroke-width="1.92"/>
<path d="M0 214.32C13.0236 214.761 34.7014 213.398 98.2393 245.534C121.343 256.043 153.131 280.878 194.219 282.991C232.313 285.718 270.702 268.551 325.975 220.958C346.199 205.284 378.1 171.996 402.978 166.417C429.184 160.626 456.515 175.885 468.585 178.203C484.629 179.377 517.393 185.629 554.95 185.629C593.24 185.629 620.406 164.958 638.592 163.358C656.778 161.759 669.064 173.785 678.747 179.711C692.697 188.313 718.293 201.183 743.273 201.183C795.171 201.183 849.779 138.272 886.879 129.386C923.979 120.5 956.508 143.205 978.543 151.033C997.074 156.211 1024.06 169.421 1055.93 170.538C1085.9 171.588 1145.45 142.382 1200.42 87.5242C1255.39 32.6664 1279.37 26.3699 1320.02 23.5607C1376.11 18.9898 1407.47 22.4803 1439.84 33.6205" stroke="#EFCFC9" stroke-width="1.88"/>
<path d="M0 212.539C12.8105 212.799 34.4404 211.309 96.4958 242.036C119.955 252.118 152.172 276.116 193.644 278.933C232.913 282.568 273.128 266.952 327.665 221.388C348.387 206.321 380.048 173.932 404.842 167.831C430.904 161.529 457.876 175.159 470.159 176.62C486.997 176.238 520.181 180.114 557.986 180.114C595.309 180.114 622.03 160.678 640.111 159.532C658.192 158.387 670.573 170.332 680.317 176.331C694.656 185.239 721.544 199.41 747.435 199.41C798.713 199.41 852.953 138.27 890.257 128.501C927.561 118.731 960.277 138.916 982.151 145.587C1000.91 149.509 1028.56 162.679 1060.34 164.206C1089.47 165.606 1147.05 138.152 1200.34 86.0765C1253.64 34.0014 1277.46 28.1458 1317.16 25.3239C1374.79 20.3224 1404.16 16.9566 1439.76 27.885" stroke="#ECD0CC" stroke-width="1.84"/>
<path d="M0 212.951C12.5975 213.031 34.1793 211.414 94.7523 240.731C118.567 250.386 151.213 273.547 193.069 277.068C233.513 281.613 275.554 267.547 329.354 224.013C350.575 209.551 381.997 178.061 406.707 171.44C432.624 164.625 459.236 176.626 471.732 177.23C489.364 175.292 522.969 176.792 561.023 176.792C597.378 176.792 623.653 158.592 641.63 157.9C659.606 157.208 672.083 169.074 681.887 175.144C696.615 184.358 724.795 199.83 751.597 199.83C802.255 199.83 856.128 140.462 893.635 129.809C931.143 119.156 964.045 136.821 985.76 142.336C1004.75 145 1033.15 155.791 1064.75 160.068C1093.04 161.818 1148.64 136.115 1200.27 86.8225C1251.89 37.5302 1275.54 32.1155 1314.29 29.2808C1373.47 23.8487 1400.84 13.6267 1439.68 24.3434" stroke="#E8D1CE" stroke-width="1.8"/>
<path d="M0 214.57C12.3844 214.469 33.9183 212.725 93.0088 240.633C117.179 249.861 150.254 272.184 192.494 276.41C234.113 281.863 277.981 269.349 331.044 227.844C352.763 213.988 383.946 183.397 408.572 176.254C434.344 168.928 460.597 179.299 473.306 179.047C491.732 175.553 525.757 174.677 564.059 174.677C599.447 174.677 625.277 157.712 643.149 157.474C661.02 157.236 673.592 169.021 683.458 175.164C698.574 184.684 728.046 201.456 755.759 201.456C805.798 201.456 859.303 143.861 897.014 132.324C934.725 120.787 967.814 135.932 989.368 140.291C1008.59 141.698 1037.74 152.003 1069.16 157.136C1096.61 159.236 1150.24 135.284 1200.19 88.7746C1250.14 42.265 1273.62 37.2912 1311.43 34.4438C1372.15 28.5811 1397.53 11.5029 1439.6 22.0077" stroke="#E4D2D1" stroke-width="1.76"/>
<path d="M0 216.735C12.1714 216.454 33.6573 214.583 91.2652 241.081C115.791 249.883 149.295 271.369 191.919 276.298C234.713 282.661 280.407 271.697 332.734 232.222C354.951 218.971 385.894 189.28 410.436 181.615C436.064 173.778 461.957 182.519 474.879 181.41C494.1 176.36 528.546 173.109 567.096 173.109C601.516 173.109 626.901 157.379 644.667 157.594C662.434 157.81 675.101 169.516 685.027 175.73C700.533 185.557 731.298 203.63 759.921 203.63C809.34 203.63 862.477 147.806 900.392 135.385C938.306 122.964 971.583 135.59 992.976 138.792C1012.43 138.943 1042.33 148.763 1073.57 154.751C1100.18 157.201 1151.83 135.001 1200.11 91.2737C1248.39 47.5469 1271.71 43.0139 1308.56 40.1538C1370.83 33.8605 1394.21 9.92602 1439.52 20.2191" stroke="#E0D3D3" stroke-width="1.72"/>
<path d="M0 219.18C11.9584 218.718 33.3962 216.721 89.5217 241.809C114.402 250.185 148.336 270.833 191.345 276.467C235.313 283.738 282.833 274.325 334.423 236.879C357.139 224.234 387.843 195.442 412.301 187.257C437.784 178.907 463.318 186.019 476.453 184.054C496.467 177.448 531.334 171.82 570.132 171.82C603.585 171.82 628.525 157.325 646.186 157.995C663.848 158.665 676.61 170.29 686.598 176.577C702.492 186.71 734.549 206.083 764.083 206.083C812.882 206.083 865.652 152.031 903.77 138.726C941.888 125.422 975.351 135.527 996.585 137.574C1016.27 136.468 1046.91 145.802 1077.98 152.646C1103.75 155.446 1153.43 134.997 1200.04 94.0527C1246.65 53.1086 1269.79 49.0165 1305.7 46.1437C1369.51 39.4198 1390.9 8.62909 1439.44 18.7104" stroke="#DCD3D6" stroke-width="1.68"/>
<path d="M0 221.781C11.7453 221.139 33.1352 219.014 87.7782 242.693C113.014 250.642 147.376 270.453 190.77 276.791C235.913 284.971 285.259 277.109 336.113 241.692C359.327 229.653 389.792 201.76 414.165 193.054C439.505 184.192 464.678 189.674 478.026 186.852C498.835 178.691 534.122 170.687 573.168 170.687C605.654 170.687 630.149 157.428 647.705 158.551C665.262 159.675 678.119 171.22 688.167 177.579C704.451 188.018 737.8 208.692 768.245 208.692C816.425 208.692 868.827 156.412 907.148 142.223C945.47 128.035 979.12 135.62 1000.19 136.511C1020.11 134.148 1051.5 142.997 1082.39 150.697C1107.32 153.847 1155.02 135.148 1199.96 96.9872C1244.9 58.8258 1267.87 55.1746 1302.83 52.289C1368.18 45.1346 1387.58 7.4876 1439.36 17.3572" stroke="#D8D4D8" stroke-width="1.64"/>
<path d="M0 224.481C11.5323 223.658 32.8741 221.406 86.0347 243.676C111.626 251.199 146.417 270.171 190.195 277.214C236.513 286.303 287.686 279.991 337.802 246.605C361.515 235.171 391.74 208.177 416.03 198.949C441.225 189.577 466.039 193.429 479.6 189.75C501.202 180.033 536.91 169.653 576.205 169.653C607.723 169.653 631.773 157.629 649.224 159.206C666.675 160.784 679.628 172.249 689.738 178.68C706.41 189.425 741.051 211.399 772.407 211.399C819.967 211.399 872.001 160.892 910.527 145.819C949.052 130.747 982.889 135.813 1003.8 135.547C1023.95 131.927 1056.09 140.291 1086.8 148.846C1110.89 152.346 1156.62 135.399 1199.88 100.021C1243.15 64.6421 1265.95 61.4318 1299.97 58.5334C1366.86 50.9485 1384.27 6.44519 1439.28 16.103" stroke="#D5D5DA" stroke-width="1.6"/>
<path d="M0 227.243C11.3192 226.24 32.6131 223.861 84.2912 244.72C110.238 251.817 145.458 269.952 189.62 277.699C237.113 287.697 290.112 282.936 339.492 251.579C363.703 240.751 393.689 214.657 417.894 204.907C442.945 195.023 467.399 197.245 481.174 192.71C503.57 181.437 539.699 168.681 579.241 168.681C609.792 168.681 633.397 157.893 650.743 159.924C668.089 161.955 681.137 173.339 691.308 179.842C708.369 190.894 744.302 214.169 776.569 214.169C823.509 214.169 875.176 165.433 913.905 149.477C952.634 133.521 986.658 136.067 1007.41 134.645C1027.79 129.768 1060.68 137.647 1091.21 147.058C1114.46 150.908 1158.21 135.712 1199.81 103.116C1241.4 70.5204 1264.04 67.751 1297.11 64.8399C1365.54 56.8243 1380.95 5.4648 1439.2 14.9109" stroke="#D1D6DD" stroke-width="1.56"/>
<path d="M0 230.053C11.1062 228.869 32.3521 226.363 82.5477 245.814C108.85 252.483 144.499 269.781 189.045 278.232C237.713 289.139 292.538 285.929 341.182 256.601C365.891 246.379 395.638 221.184 419.759 210.913C444.665 200.517 468.76 201.11 482.747 195.718C505.938 182.889 542.487 167.758 582.278 167.758C611.861 167.758 635.02 158.204 652.262 160.689C669.503 163.174 682.646 174.479 692.878 181.054C710.329 192.412 747.553 216.987 780.731 216.987C827.052 216.987 878.351 170.023 917.283 153.183C956.216 136.343 990.426 136.369 1011.02 133.791C1031.63 127.658 1065.27 135.051 1095.63 145.317C1118.03 149.517 1159.81 136.073 1199.73 106.26C1239.65 76.4469 1262.12 74.1183 1294.24 71.1945C1364.22 62.7484 1377.64 4.5326 1439.12 13.7669" stroke="#CDD7DF" stroke-width="1.52"/>
<path d="M0 232.891C10.8932 231.527 32.091 228.894 80.8042 246.935C107.462 253.178 143.54 269.638 188.471 278.793C238.313 290.609 294.964 288.95 342.871 261.652C368.079 252.035 397.587 227.739 421.624 216.947C446.385 206.04 470.12 205.003 484.321 198.754C508.305 184.369 545.275 166.862 585.314 166.862C613.93 166.862 636.644 158.544 653.781 161.483C670.917 164.421 684.156 175.646 694.448 182.293C712.288 193.957 750.805 219.833 784.893 219.833C830.594 219.833 881.525 174.641 920.661 156.917C959.797 139.194 994.195 136.7 1014.63 132.966C1035.47 125.575 1069.86 132.483 1100.04 143.605C1121.6 148.155 1161.4 136.462 1199.65 109.432C1237.91 82.4015 1260.2 80.5137 1291.38 77.5771C1362.9 68.7004 1374.32 3.62841 1439.04 12.651" stroke="#C9D7E2" stroke-width="1.48"/>
<path d="M0 235.753C10.6801 234.208 31.83 231.448 79.0606 248.079C106.074 253.896 142.581 269.519 187.896 279.378C238.913 292.103 297.391 291.994 344.561 266.726C370.267 257.714 399.535 234.318 423.488 223.005C448.105 211.586 471.481 208.919 485.894 201.814C510.673 185.873 548.063 165.99 588.35 165.99C615.999 165.99 638.268 158.907 655.3 162.3C672.331 165.692 685.665 176.836 696.018 183.556C714.247 195.526 754.056 222.703 789.055 222.703C834.136 222.703 884.7 179.283 924.04 160.675C963.379 142.068 997.964 137.054 1018.23 132.164C1039.31 123.516 1074.44 129.939 1104.45 141.916C1125.17 146.817 1163 136.875 1199.58 112.627C1236.16 88.3797 1258.29 86.9328 1288.51 83.9835C1361.58 74.6762 1371.01 2.74796 1438.96 11.5588" stroke="#C5D8E4" stroke-width="1.44"/>
<path d="M0 238.635C10.4671 236.91 31.569 234.023 77.3171 249.244C104.686 254.635 141.622 269.42 187.321 279.983C239.513 293.617 299.817 295.059 346.25 271.82C372.455 263.414 401.484 240.918 425.353 229.083C449.825 217.152 472.841 212.856 487.468 204.894C513.04 187.397 550.851 165.138 591.387 165.138C618.067 165.138 639.892 159.291 656.818 163.137C673.745 166.983 687.174 178.047 697.587 184.839C716.206 197.116 757.307 225.592 793.217 225.592C837.679 225.592 887.874 183.945 927.418 164.453C966.961 144.962 1001.73 137.428 1021.84 131.382C1043.15 121.478 1079.03 127.415 1108.86 140.248C1128.74 145.498 1164.59 137.308 1199.5 115.843C1234.41 94.378 1256.37 93.372 1285.65 90.41C1360.26 80.6721 1367.69 1.88759 1438.88 10.4867" stroke="#C1D9E7" stroke-width="1.4"/>
<path d="M0 241.531C10.254 239.626 31.3079 236.611 75.5736 250.423C103.298 255.387 140.663 269.335 186.746 280.603C240.113 295.145 302.243 298.138 347.94 276.929C374.643 269.128 403.433 247.531 427.217 235.175C451.545 222.732 474.202 216.807 489.041 207.988C515.408 188.936 553.639 164.3 594.423 164.3C620.137 164.3 641.516 159.688 658.337 163.988C675.159 168.289 688.683 179.272 699.158 186.136C718.165 198.719 760.558 228.496 797.379 228.496C841.221 228.496 891.049 188.621 930.796 168.245C970.543 147.87 1005.5 137.817 1025.45 130.614C1046.99 119.453 1083.62 124.905 1113.27 138.594C1132.31 144.194 1166.19 137.755 1199.42 119.073C1232.66 100.391 1254.45 99.8254 1282.78 96.8506C1358.94 86.6822 1364.38 1.04137 1438.8 9.4287" stroke="#BEDAE9" stroke-width="1.36"/>
<path d="M0 244.436C10.041 242.351 31.0469 239.209 73.8301 251.611C101.91 256.149 139.703 269.259 186.172 281.231C240.713 296.683 304.67 301.226 349.63 282.046C376.831 274.851 405.381 254.154 429.082 241.276C453.265 228.322 475.562 220.767 490.615 211.092C517.776 190.483 556.428 163.472 597.46 163.472C622.206 163.472 643.14 160.095 659.856 164.849C676.573 169.603 690.192 180.507 700.728 187.442C720.124 200.332 763.809 231.41 801.541 231.41C844.763 231.41 894.224 193.306 934.174 172.047C974.125 150.788 1009.27 138.215 1029.06 129.856C1050.83 117.438 1088.21 122.404 1117.68 136.948C1135.88 142.899 1167.78 138.211 1199.35 122.312C1230.91 106.412 1252.54 106.288 1279.92 103.301C1357.61 92.7015 1361.06 0.204472 1438.72 8.38004" stroke="#BADBEB" stroke-width="1.32"/>
<path d="M0 247.351C9.82797 245.085 30.7858 241.816 72.0866 252.809C100.522 256.92 138.744 269.192 185.597 281.869C241.313 298.229 307.096 304.323 351.319 287.173C379.019 280.584 407.33 260.785 430.947 247.387C454.986 233.921 476.923 224.736 492.188 214.204C520.143 192.04 559.216 162.652 600.496 162.652C624.275 162.652 644.764 160.511 661.375 165.719C677.987 170.927 691.701 181.75 702.298 188.758C722.083 201.954 767.06 234.332 805.703 234.332C848.306 234.332 897.398 198 937.552 175.857C977.707 153.714 1013.04 138.621 1032.67 129.106C1054.67 115.431 1092.8 119.913 1122.09 135.313C1139.45 141.613 1169.38 138.676 1199.27 125.56C1229.16 112.443 1250.62 112.76 1277.06 109.76C1356.29 98.73 1357.75 -0.623325 1438.64 7.34049" stroke="#B6DBEE" stroke-width="1.28"/>
<path d="M0 250.274C9.61493 247.828 30.5248 244.432 70.3431 254.016C99.1338 257.7 137.785 269.135 185.022 282.516C241.913 299.785 309.522 307.43 353.009 292.309C381.207 286.326 409.279 267.426 432.811 253.507C456.706 239.529 478.283 228.714 493.762 217.326C522.511 193.606 562.004 161.842 603.532 161.842C626.344 161.842 646.387 160.937 662.894 166.598C679.401 172.26 693.21 183.003 703.868 190.083C724.042 203.585 770.311 237.264 809.865 237.264C851.848 237.264 900.573 202.704 940.931 179.677C981.288 156.651 1016.81 139.038 1036.28 128.366C1058.51 113.435 1097.39 117.431 1126.5 133.686C1143.02 140.336 1170.97 139.151 1199.2 128.817C1227.42 118.484 1248.7 119.241 1274.19 116.228C1354.97 104.768 1354.43 -1.4417 1438.56 6.31036" stroke="#B2DCF0" stroke-width="1.24"/>
<path d="M0 253.203C9.40189 250.576 30.2638 247.053 68.5996 255.227C97.7457 258.485 136.826 269.082 184.447 283.167C242.513 301.346 311.948 310.541 354.698 297.45C383.395 292.072 411.227 274.072 434.676 259.631C458.426 245.141 479.644 232.697 495.335 220.452C524.878 195.176 564.792 161.037 606.569 161.037C628.413 161.037 648.011 161.366 664.413 167.482C680.815 173.597 694.719 184.26 705.438 191.412C726.001 205.221 773.563 240.2 814.027 240.2C855.39 240.2 903.748 207.412 944.309 183.501C984.87 159.591 1020.58 139.458 1039.88 127.631C1062.35 111.442 1101.98 114.953 1130.91 132.064C1146.59 139.064 1172.57 139.63 1199.12 132.079C1225.67 124.528 1246.78 125.726 1271.33 122.701C1353.65 110.81 1351.11 -2.25583 1438.48 5.28448" stroke="#AEDDF3" stroke-width="1.2"/>
<path d="M0 256.138C9.18885 253.331 30.0027 249.681 66.856 256.445C96.3577 259.277 135.867 269.036 183.872 283.826C243.114 302.913 314.375 313.659 356.388 302.597C385.583 297.825 413.176 280.724 436.54 265.762C460.146 250.761 481.004 236.687 496.909 223.586C527.246 196.754 567.581 160.238 609.605 160.238C630.482 160.238 649.635 161.803 665.932 168.372C682.229 174.942 696.229 185.525 707.008 192.748C727.96 206.863 776.814 243.143 818.189 243.143C858.933 243.143 906.922 212.127 947.687 187.333C988.452 162.538 1024.34 139.886 1043.49 126.902C1066.19 109.457 1106.56 112.482 1135.32 130.449C1150.16 137.799 1174.17 140.116 1199.04 135.348C1223.92 130.58 1244.87 132.219 1268.46 129.181C1352.33 116.859 1347.8 -3.06281 1438.4 4.26575" stroke="#AADEF5" stroke-width="1.16"/>
<path d="M0 259.078C8.97581 256.09 29.7417 252.313 65.1125 257.668C94.9696 260.073 134.908 268.995 183.298 284.488C243.714 304.485 316.801 316.782 358.078 307.749C387.771 303.583 415.125 287.381 438.405 271.898C461.866 256.385 482.365 240.682 498.482 226.724C529.614 198.335 570.369 159.444 612.642 159.444C632.551 159.444 651.259 162.244 667.451 169.267C683.643 176.29 697.738 186.793 708.578 194.089C729.919 208.51 780.065 246.091 822.351 246.091C862.475 246.091 910.097 216.847 951.065 191.169C992.034 165.49 1028.11 140.318 1047.1 126.178C1070.03 107.476 1111.15 110.016 1139.73 128.838C1153.73 136.538 1175.76 140.607 1198.97 138.621C1222.17 136.636 1242.95 138.716 1265.6 135.665C1351.01 122.913 1344.48 -3.86537 1438.32 3.25143" stroke="#A7DFF8" stroke-width="1.12"/>
<path d="M0 262.021C8.76277 258.853 29.4807 254.949 63.369 258.894C93.5815 260.873 133.949 268.957 182.723 285.155C244.314 306.06 319.227 319.908 359.767 312.905C389.959 309.344 417.073 294.042 440.269 278.037C463.586 262.013 483.725 244.68 500.056 229.865C531.981 199.921 573.157 158.654 615.678 158.654C634.62 158.654 652.883 162.689 668.97 170.166C685.056 177.643 699.247 188.066 710.148 195.434C731.879 210.161 783.316 249.042 826.513 249.042C866.017 249.042 913.272 221.57 954.444 195.008C995.616 168.446 1031.88 140.754 1050.71 125.458C1073.87 105.499 1115.74 107.553 1144.14 127.231C1157.3 135.281 1177.36 141.101 1198.89 141.899C1220.42 142.696 1241.03 145.217 1262.74 142.153C1349.69 128.97 1341.17 -4.66417 1438.24 2.24088" stroke="#A3DFFA" stroke-width="1.08"/>
<path d="M0 264.966C8.54974 261.617 29.2196 257.586 61.6255 260.122C92.1935 261.674 132.99 268.921 182.148 285.823C244.914 307.637 321.653 323.035 361.457 318.062C392.147 315.107 419.022 300.704 442.134 284.178C465.306 267.642 485.086 248.679 501.629 233.008C534.349 201.508 575.945 157.865 618.714 157.865C636.689 157.865 654.507 163.136 670.489 171.066C686.47 178.997 700.756 189.34 711.718 196.78C733.838 211.813 786.567 251.995 830.675 251.995C869.56 251.995 916.446 226.295 957.822 198.849C999.198 171.403 1035.65 141.191 1054.32 124.739C1077.71 103.523 1120.33 105.092 1148.55 125.625C1160.87 134.026 1178.95 141.597 1198.81 145.177C1218.67 148.757 1239.12 151.719 1259.87 148.642C1348.36 135.029 1337.85 -5.46168 1438.16 1.23162" stroke="#9FE0FD"/>
</svg>
