<svg width="22" height="24" viewBox="0 0 22 24" fill="none" xmlns="http://www.w3.org/2000/svg">
<path d="M10.2603 0.993965C10.7192 0.73391 11.2808 0.73391 11.7397 0.993964L15.97 3.39173L20.1617 5.85643C20.6163 6.12374 20.8971 6.61017 20.9013 7.13754L20.94 12L20.9013 16.8625C20.8971 17.3898 20.6163 17.8763 20.1617 18.1436L15.97 20.6083L11.7397 23.006C11.2808 23.2661 10.7192 23.2661 10.2603 23.006L6.02999 20.6083L1.83832 18.1436C1.3837 17.8763 1.10286 17.3898 1.09867 16.8625L1.06002 12L1.09867 7.13754C1.10286 6.61017 1.3837 6.12374 1.83832 5.85643L6.03 3.39172L10.2603 0.993965Z" stroke="url(#paint0_linear_14303_18068)"/>
<defs>
<linearGradient id="paint0_linear_14303_18068" x1="11" y1="0" x2="11" y2="24" gradientUnits="userSpaceOnUse">
<stop stop-color="#F35A35"/>
<stop offset="1" stop-color="#C2EDFF"/>
</linearGradient>
</defs>
</svg>
