<svg width="18" height="20" viewBox="0 0 18 20" fill="none" xmlns="http://www.w3.org/2000/svg">
<path d="M8.5069 0.279489C8.81277 0.106119 9.18723 0.106119 9.4931 0.279489L13.35 2.46558L17.1717 4.71271C17.4747 4.89092 17.662 5.2152 17.6648 5.56678L17.7 10L17.6648 14.4332C17.662 14.7848 17.4747 15.1091 17.1717 15.2873L13.35 17.5344L9.4931 19.7205C9.18723 19.8939 8.81277 19.8939 8.5069 19.7205L4.65 17.5344L0.828341 15.2873C0.525261 15.1091 0.338035 14.7848 0.33524 14.4332L0.3 10L0.33524 5.56678C0.338035 5.2152 0.52526 4.89092 0.82834 4.71271L4.65 2.46558L8.5069 0.279489Z" fill="url(#paint0_linear_14303_18069)"/>
<defs>
<linearGradient id="paint0_linear_14303_18069" x1="9" y1="0" x2="9" y2="20" gradientUnits="userSpaceOnUse">
<stop stop-color="#F35A35"/>
<stop offset="1" stop-color="#C2EDFF"/>
</linearGradient>
</defs>
</svg>
